<?xml version="1.0" encoding="UTF-8"?>
<svg width="40" height="40" viewBox="0 0 40 40" fill="none" xmlns="http://www.w3.org/2000/svg">
  <rect width="40" height="40" rx="8" fill="#2563EB"/>
  <path d="M20 10C14.48 10 10 14.48 10 20C10 25.52 14.48 30 20 30C25.52 30 30 25.52 30 20C30 14.48 25.52 10 20 10ZM18 25H16V18H18V25ZM20 16C19.45 16 19 15.55 19 15C19 14.45 19.45 14 20 14C20.55 14 21 14.45 21 15C21 15.55 20.55 16 20 16ZM24 25H22V21.5C22 20.67 21.33 20 20.5 20C19.67 20 19 20.67 19 21.5V25H17V21.5C17 19.84 18.34 18.5 20 18.5C21.66 18.5 23 19.84 23 21.5V25Z" fill="white"/>
</svg>
